Coordinates
version=1
nRows=43
nColumns=12
inDegrees=yes

Units are S.I. units (second, meters, Newtons, ...)
Angles are in degrees

endheader
time	SC_y	SC_z	SC_x	AC_y	AC_z	AC_x	GH_y	GH_z	GH_yy	EL_x	PS_y
       0.0              -18.41          7.183          34.81           49.9          3.723          7.773          125.1          28.89         -99.48          55.38          158.6
   0.04703              -18.41          7.182           34.8          49.91          3.723          7.774          125.1           28.9         -99.46          55.38          158.6
   0.09406              -18.42          7.182           34.8          49.91          3.723          7.776          125.0           28.9         -99.45          55.39          158.6
    0.1411              -18.42          7.181           34.8          49.91          3.723          7.777          125.0           28.9         -99.43          55.39          158.6
    0.1881              -18.43           7.18           34.8          49.91          3.724          7.779          125.0          28.91         -99.41          55.39          158.6
    0.2351              -18.44           7.18           34.8          49.92          3.724          7.781          125.0          28.91         -99.39          55.39          158.5
    0.2822              -18.45          7.179          34.79          49.92          3.724          7.783          124.9          28.92         -99.37           55.4          158.5
    0.3292              -18.46          7.178          34.79          49.93          3.724          7.786          124.9          28.92         -99.35           55.4          158.5
    0.3762              -18.47          7.178          34.79          49.93          3.724          7.788          124.9          28.93         -99.33           55.4          158.5
    0.4233              -18.48          7.177          34.78          49.94          3.725          7.791          124.9          28.93          -99.3          55.41          158.5
    0.4703              -18.49          7.176          34.78          49.94          3.725          7.793          124.8          28.94         -99.28          55.41          158.4
    0.5173               -18.5          7.175          34.78          49.95          3.725          7.796          124.8          28.95         -99.25          55.41          158.4
    0.5643              -18.51          7.174          34.77          49.95          3.725            7.8          124.8          28.96         -99.22          55.42          158.4
    0.6114              -18.52          7.173          34.77          49.96          3.725          7.803          124.7          28.96         -99.18          55.42          158.4
    0.6584              -18.54          7.172          34.76          49.96          3.726          7.807          124.7          28.97         -99.15          55.43          158.3
    0.7054              -18.55           7.17          34.76          49.97          3.726          7.811          124.6          28.98         -99.11          55.43          158.3
    0.7525              -18.57          7.169          34.75          49.98          3.726          7.815          124.6          28.99         -99.06          55.44          158.3
    0.7995              -18.59          7.167          34.75          49.99          3.727           7.82          124.5           29.0         -99.02          55.44          158.2
    0.8465              -18.61          7.166          34.74           50.0          3.727          7.825          124.5          29.02         -98.97          55.45          158.2
    0.8935              -18.63          7.164          34.73          50.01          3.728          7.831          124.4          29.03         -98.91          55.46          158.1
    0.9406              -18.66          7.162          34.72          50.02          3.728          7.838          124.3          29.04         -98.85          55.47          158.1
    0.9876              -18.69           7.16          34.72          50.03          3.729          7.845          124.3          29.06         -98.78          55.48          158.0
     1.035              -18.72          7.157          34.71          50.05          3.729          7.852          124.2          29.08         -98.71          55.49          158.0
     1.082              -18.75          7.154          34.69          50.06           3.73          7.861          124.1           29.1         -98.63           55.5          157.9
     1.129              -18.79          7.151          34.68          50.08          3.731           7.87          124.0          29.12         -98.54          55.51          157.8
     1.176              -18.83          7.148          34.67           50.1          3.732          7.881          123.8          29.15         -98.43          55.52          157.7
     1.223              -18.87          7.144          34.65          50.12          3.732          7.893          123.7          29.17         -98.32          55.54          157.6
      1.27              -18.92           7.14          34.64          50.15          3.734          7.906          123.6           29.2         -98.19          55.56          157.5
     1.317              -18.98          7.135          34.62          50.17          3.735          7.921          123.4          29.24         -98.05          55.58          157.4
     1.364              -19.05           7.13           34.6          50.21          3.736          7.938          123.2          29.28         -97.88           55.6          157.3
     1.411              -19.13          7.123          34.57          50.24          3.738          7.958          123.0          29.32         -97.69          55.62          157.1
     1.458              -19.21          7.116          34.54          50.28          3.739           7.98          122.7          29.38         -97.48          55.65          156.9
     1.505              -19.31          7.108          34.51          50.33          3.741          8.006          122.4          29.44         -97.23          55.69          156.7
     1.552              -19.43          7.098          34.47          50.38          3.744          8.036          122.1          29.51         -96.94          55.72          156.5
     1.599              -19.57          7.087          34.43          50.45          3.746          8.072          121.7          29.59          -96.6          55.77          156.2
     1.646              -19.73          7.074          34.37          50.52           3.75          8.113          121.2          29.69          -96.2          55.82          155.9
     1.693              -19.92          7.058          34.31          50.61          3.754          8.162          120.7           29.8         -95.72          55.89          155.5
      1.74              -20.15          7.039          34.24          50.72          3.758          8.222          120.0          29.94         -95.16          55.97          155.0
     1.787              -20.43          7.016          34.15          50.85          3.764          8.293          119.2          30.11         -94.47          56.06          154.4
     1.834              -20.77          6.989          34.04          51.01          3.771           8.38          118.2          30.31         -93.63          56.17          153.7
     1.881              -21.19          6.954           33.9          51.21          3.779          8.488          117.0          30.56         -92.59          56.31          152.8
     1.928              -21.71          6.911          33.73          51.46           3.79          8.623          115.4          30.88         -91.29          56.49          151.8
     1.975              -22.37          6.857          33.51          51.77          3.803          8.792          113.5          31.27         -89.66          56.71          150.4
